<?xml version="1.0" encoding="UTF-8"?>
<svg width="191px" height="40px" viewBox="0 0 191 40" version="1.1" xmlns="http://www.w3.org/2000/svg" xmlns:xlink="http://www.w3.org/1999/xlink">
    <title>编组备份</title>
    <g id="页面-1" stroke="none" stroke-width="1" fill="none" fill-rule="evenodd">
        <g id="首页备份-7" transform="translate(-40.000000, -20.000000)">
            <g id="编组备份" transform="translate(40.000000, 20.000000)">
                <g id="编组-21" transform="translate(117.572394, 5.000000)" fill="#FFFFFF">
                    <path d="M26.0445678,25.7084642 L36.4832344,25.7084642 L36.4832344,17.8405085 L26.0445678,17.8405085 L26.0445678,25.7084642 Z M24.3756901,28.5253865 C23.8521206,28.5253865 23.4376281,28.3742873 23.1322126,28.0720887 C22.8049817,27.7483045 22.6413662,27.3381779 22.6413662,26.8417088 L22.6413662,15.0235861 L38.1848352,15.0235861 C38.7302201,15.0235861 39.1556203,15.1746854 39.4610358,15.476884 C39.7664514,15.7790825 39.9191591,16.1892092 39.9191591,16.7072639 L39.9191591,28.5253865 L24.3756901,28.5253865 Z M30.1349544,3.72351811 C30.1349544,5.77415127 29.8295389,7.56575708 29.2187078,9.09833555 C28.6296922,10.5445716 27.6916302,11.9800148 26.4045219,13.4046652 L22.215966,13.4046652 C23.9393822,11.6130594 25.1392289,9.98334565 25.8155062,8.51552402 C26.4481526,7.13404484 26.7644759,5.53670953 26.7644759,3.72351811 L22.4450276,3.72351811 L22.4450276,0.906595713 L38.1848352,0.906595713 C39.3410512,0.906595713 39.9191591,1.46782163 39.9191591,2.59027347 L39.9191591,8.25649667 C39.9191591,9.85383198 39.5046666,11.5483025 38.6756816,13.3399084 L34.9779721,13.3399084 C36.0032957,11.4835457 36.5159575,9.82145356 36.5159575,8.35363193 L36.5159575,3.72351811 L30.1349544,3.72351811 Z M18.2564718,16.8043991 L18.2564718,21.8554324 C18.2564718,23.2369116 18.1583025,24.434913 17.9619639,25.4494368 C17.74381,26.550303 17.3511329,27.8022685 16.7839326,29.2053333 L13.1516693,29.2053333 C13.849762,27.6511693 14.318793,26.3344469 14.5587623,25.2551663 C14.7551009,24.3701562 14.8532701,23.3124612 14.8532701,22.0820813 L14.8532701,17.3548322 L11.2537299,17.9376438 L11.2537299,14.7969372 L14.8532701,14.2465041 L14.8532701,7.64130673 L11.2537299,7.64130673 L11.2537299,4.69487066 L14.8532701,4.69487066 L14.8532701,0 L18.2564718,0 L18.2564718,4.69487066 L21.4633349,4.69487066 L21.4633349,7.64130673 L18.2564718,7.64130673 L18.2564718,13.7284494 L21.528781,13.2103947 L21.528781,16.2863444 L18.2564718,16.8043991 Z" id="形状" fill-rule="nonzero"></path>
                    <ellipse id="椭圆形" cx="1.99275244" cy="14" rx="1.99275244" ry="2"></ellipse>
                    <path d="M69.3044964,8.59778271 L65.999464,8.59778271 L65.999464,10.9277162 L69.3044964,10.9277162 L69.3044964,8.59778271 Z M69.3044964,6.49756098 L69.3044964,4.20044346 L65.999464,4.20044346 L65.999464,6.49756098 L69.3044964,6.49756098 Z M66.0976333,1.73924612 L70.9079279,1.73924612 C71.9332515,1.73924612 72.4459133,2.24242424 72.4459133,3.24878049 L72.4459133,13.3889135 L58.1459218,13.3889135 C57.055152,13.3889135 56.5097671,12.8310421 56.5097671,11.7152993 L56.5097671,1.73924612 L62.8580471,1.73924612 L62.8580471,0.065631929 L66.0976333,0.065631929 L66.0976333,1.73924612 Z M62.9562164,10.9277162 L62.9562164,8.59778271 L59.651184,8.59778271 L59.651184,10.9277162 L62.9562164,10.9277162 Z M62.9562164,6.49756098 L62.9562164,4.20044346 L59.651184,4.20044346 L59.651184,6.49756098 L62.9562164,6.49756098 Z M62.8580471,17.7862528 L62.105416,19.9192905 L70.0571275,19.9192905 C71.2569742,19.9192905 71.8568976,20.4771619 71.8568976,21.5929047 L71.8568976,24.8416851 C71.8568976,26.3293422 71.4205897,27.9154472 70.5479739,29.6 L66.7848182,29.6 C67.9192188,27.7404287 68.4864191,26.176201 68.4864191,24.9073171 L68.4864191,22.6758315 L59.8147995,22.6758315 C59.2694146,22.6758315 58.8658298,22.4789357 58.6040451,22.0851441 C58.3422603,21.6913525 58.2877218,21.2100517 58.4404296,20.6412417 L59.3893993,17.7862528 L55.4299051,17.7862528 L55.4299051,15.0297118 L73.4276061,15.0297118 L73.4276061,17.7862528 L62.8580471,17.7862528 Z M54.5136585,22.9383592 L54.5136585,29.6 L51.4376878,29.6 L51.4376878,23.6603104 L43.9768226,25.4323725 L43.9768226,22.4789357 L45.2857463,22.183592 L45.2857463,3.83946785 L43.9768226,3.83946785 L43.9768226,1.14855876 L55.6589667,1.14855876 L55.6589667,3.83946785 L54.5136585,3.83946785 L54.5136585,20.0177384 L56.0843669,19.6567627 L56.0843669,22.5773836 L54.5136585,22.9383592 Z M51.4376878,20.7396896 L51.4376878,16.7689579 L48.2635478,16.7689579 L48.2635478,21.4944568 L51.4376878,20.7396896 Z M51.4376878,14.2093126 L51.4376878,10.0416851 L48.2635478,10.0416851 L48.2635478,14.2093126 L51.4376878,14.2093126 Z M51.4376878,7.51485588 L51.4376878,3.83946785 L48.2635478,3.83946785 L48.2635478,7.51485588 L51.4376878,7.51485588 Z" id="形状" fill-rule="nonzero"></path>
                </g>
                <g id="编组-19" transform="translate(47.826059, 5.000000)" fill="#FFFFFF">
                    <path d="M15.0393099,22.7593651 C11.9983838,26.7714595 6.98481343,29.0514388 0,29.6 L1.05777437,26.2786606 C3.28330363,26.2570527 5.49762469,25.7189469 7.70143805,24.6664343 C9.8169868,23.6585315 11.3917396,22.4303678 12.4277981,20.9833373 L0.495963084,20.9833373 L0.495963084,18.1220365 L13.2214792,18.1220365 L13.2214792,15.392474 L1.2230954,15.392474 L1.2230954,12.5632365 L13.2214792,12.5632365 L13.2214792,10.32717 L1.2230954,10.32717 L1.2230954,7.49862949 L13.2214792,7.49862949 L13.2214792,5.29462629 L0.495963084,5.29462629 L0.495963084,2.43402251 L5.61881341,2.43402251 C5.487117,1.33759714 5.38764418,0.526256299 5.32109546,0 L8.92453345,0 C9.05622987,0.811340837 9.17741859,1.62268167 9.28809961,2.43402251 L20.8234444,2.43402251 C20.9999736,1.33759714 21.1099541,0.526256299 21.1540864,0 L24.8233726,0 C24.7568239,0.811340837 24.6580516,1.62268167 24.5256547,2.43402251 L29.6821296,2.43402251 L29.6821296,5.29462629 L16.7583684,5.29462629 L16.7583684,7.49862949 L28.9549973,7.49862949 L28.9549973,10.32717 L16.7583684,10.32717 L16.7583684,12.5632365 L28.9549973,12.5632365 L28.9549973,15.392474 L16.7583684,15.392474 L16.7583684,18.1220365 L29.6821296,18.1220365 L29.6821296,20.9833373 L17.6837459,20.9833373 C18.9397654,22.4958885 20.7022557,23.7345076 22.9719172,24.6991946 C25.1757306,25.6429708 27.5882968,26.2124429 30.2110168,26.4097019 L28.4261101,29.501719 C25.8475224,29.1936326 23.4020321,28.4931192 21.0882382,27.3959968 C18.510351,26.1692271 16.4935746,24.6232186 15.0393099,22.7593651" id="Fill-103"></path>
                    <path d="M44.1594882,10.2945491 L39.1354102,10.2945491 L39.1354102,7.53152922 L50.6385313,7.53152922 L50.6385313,4.99852871 L54.0093991,4.99852871 L54.0093991,7.53152922 L57.1827222,7.53152922 L57.1827222,10.2945491 L54.0093991,10.2945491 L54.0093991,18.0231979 C54.0093991,20.6537823 53.678757,22.8800904 53.0181734,24.6993341 L49.3159631,24.6993341 C49.8665662,23.5596929 50.2301324,22.4848754 50.4066616,21.4762756 C50.5607744,20.6440239 50.6385313,19.5252936 50.6385313,18.1214788 L50.6385313,10.2945491 L47.5639805,10.2945491 C47.3216031,12.838005 46.771,15.4908944 45.9114708,18.2532172 C45.0302256,21.0378449 44.0712236,23.1867828 43.0358656,24.6993341 L39.2678071,24.6993341 C40.4131456,23.0773494 41.4162799,21.0824547 42.2758092,18.7139528 C43.2670348,15.9955428 43.8953948,13.1879132 44.1594882,10.2945491 L44.1594882,10.2945491 Z M37.3834276,26.3115603 L58.7357591,26.3115603 L58.7357591,3.48667452 L37.3834276,3.48667452 L37.3834276,26.3115603 Z M33.9460111,0.591916357 L60.4218935,0.591916357 C61.5679325,0.613524231 62.1514597,1.19484576 62.1738761,2.33518391 L62.1738761,29.2056214 L35.6979937,29.2056214 C34.5519547,29.1833165 33.967727,28.602692 33.9460111,27.4623539 L33.9460111,0.591916357 Z" id="Fill-104"></path>
                </g>
                <g id="编组-3">
                    <path d="M11.4955706,0 L28.3587774,0 C32.3564751,0 33.8055967,0.417750897 35.2673316,1.20191293 C36.7283657,1.98677825 37.8754702,3.13735143 38.6567906,4.60440256 C39.438111,6.0707504 39.8550488,7.5258457 39.8550488,11.5373796 L39.8550488,28.4626204 C39.8550488,32.4741543 39.438111,33.9292496 38.6567906,35.3955974 C37.8754702,36.8626486 36.7283657,38.0132217 35.2673316,38.7980871 C33.8055967,39.5822491 32.3564751,40 28.3587774,40 L11.4955706,40 C7.49787295,40 6.04875134,39.5822491 4.58771722,38.7980871 C3.12598236,38.0132217 1.97887787,36.8626486 1.19755747,35.3955974 C0.416237059,33.9292496 0,32.4741543 0,28.4626204 L0,11.5373796 C0,7.5258457 0.416237059,6.0707504 1.19755747,4.60440256 C1.97887787,3.13735143 3.12598236,1.98677825 4.58771722,1.20191293 C6.04875134,0.417750897 7.49787295,0 11.4955706,0" id="Fill-105" fill="#FFD000"></path>
                    <path d="M13.0441438,23.1108376 C14.327953,24.6693157 16.7153631,25.6637598 19.301142,25.8627892 L18.4119749,27.4212673 C16.0245648,27.1392503 13.2746428,26.0118855 11.7435711,24.0222941 C10.3270504,26.0118855 7.62741905,27.2222379 4.25165749,27.4712005 L4.77901109,25.7966805 C7.06723681,25.7636261 9.43788335,24.5701526 10.4590635,23.1108376 L4.46609134,23.1108376 L4.46609134,21.6684014 L10.854404,21.6684014 L10.854404,20.3096561 L4.82790481,20.3096561 L4.82790481,18.8833955 L10.854404,18.8833955 L10.854404,17.7729095 L4.82790481,17.7729095 L4.82790481,16.3473521 L10.854404,16.3473521 L10.854404,15.1862297 L4.46609134,15.1862297 L4.46609134,13.7444968 L7.05047325,13.7444968 L6.90309363,12.5172656 L8.69749286,12.5172656 C8.76315013,12.9153246 8.81274232,13.329559 8.87839959,13.7444968 L14.6248077,13.7444968 C14.7072285,13.329559 14.7568207,12.9153246 14.7896494,12.5172656 L16.6168772,12.5172656 C16.5840486,12.9153246 16.5351549,13.329559 16.4687991,13.7444968 L19.0538795,13.7444968 L19.0538795,15.1862297 L12.6159746,15.1862297 L12.6159746,16.3473521 L18.6424739,16.3473521 L18.6424739,17.7729095 L12.6159746,17.7729095 L12.6159746,18.8833955 L18.6424739,18.8833955 L18.6424739,20.3096561 L12.6159746,20.3096561 L12.6159746,21.6684014 L19.0538795,21.6684014 L19.0538795,23.1108376 L13.0441438,23.1108376 Z" id="Fill-106" fill="#000000"></path>
                    <path d="M23.7447422,17.7397145 L23.7447422,16.3472115 L29.4911503,16.3472115 L29.4911503,15.0876292 L31.1863652,15.0876292 L31.1863652,16.3472115 L32.8005562,16.3472115 L32.8005562,17.7397145 L31.1863652,17.7397145 L31.1863652,21.6682608 C31.1863652,23.0115339 31.022222,24.0059779 30.6597101,25.0341796 L28.8157186,25.0341796 C29.3759009,23.8400028 29.4911503,22.994655 29.4911503,21.718194 L29.4911503,17.7397145 L27.9433151,17.7397145 C27.7128162,20.3095154 26.7251632,23.4918771 25.6872196,25.0341796 L23.8103995,25.0341796 C24.814816,23.6086223 25.9673107,20.822913 26.2474018,17.7397145 L23.7447422,17.7397145 Z M22.8723387,25.8338139 L33.5577102,25.8338139 L33.5577102,14.2943245 L22.8723387,14.2943245 L22.8723387,25.8338139 Z M35.2864522,13.7302905 L35.2864522,27.3086012 L22.0655925,27.3086012 C21.4725816,27.3086012 21.1435968,26.9773542 21.1435968,26.3971447 L21.1435968,12.8181307 L34.3483914,12.8181307 C34.9407038,12.8181307 35.2864522,13.1500809 35.2864522,13.7302905 L35.2864522,13.7302905 Z" id="Fill-107" fill="#000000"></path>
                </g>
            </g>
        </g>
    </g>
</svg>